<?xml version="1.0" encoding="utf-8" standalone="no"?><!DOCTYPE svg PUBLIC "-//W3C//DTD SVG 20010904//EN" "http://www.w3.org/TR/2001/REC-SVG-20010904/DTD/svg10.dtd"><svg xmlns="http://www.w3.org/2000/svg" width="619" height="420" xmlns:xlink="http://www.w3.org/1999/xlink"><source><![CDATA[User->Web API: HTTP Request
Note right of User: sendGet
Web API->Data: get products
Data-->Web API: show all products
Web API-->User: HTTP Response
Note right of User: {product:"item",price:"price",id:"id"}]]></source><desc></desc><defs><marker viewBox="0 0 5 5" markerWidth="5" markerHeight="5" orient="auto" refX="5" refY="2.5" id="markerArrowBlock"><path d="M 0 0 L 5 2.5 L 0 5 z"></path></marker><marker viewBox="0 0 9.6 16" markerWidth="4" markerHeight="16" orient="auto" refX="9.6" refY="8" id="markerArrowOpen"><path d="M 9.6,8 1.92,16 0,13.7 5.76,8 0,2.286 1.92,0 9.6,8 z"></path></marker></defs><g class="title"></g><g class="actor"><path d="M10,20C25.3,22.5 52.6,17.5 73.7,20.0C75.4,42.8 72.0,42.0 73.7,62.5C25.3,65.0 29.0,60.0 10.0,62.5C11.7,30.2 8.3,41.1 10.0,20.0" stroke="#000000" fill="#ffffff" style="stroke-width: 2;"></path><text x="20" y="44" style="font-size: 16px; font-family: danielbd;"><tspan x="20">User</tspan></text></g><g class="actor"><path d="M10,357.5C25.3,360.0 28.8,355.0 73.7,357.5C72.0,389.8 75.4,381.7 73.7,400.0C55.9,402.5 48.8,397.5 10.0,400.0C11.7,367.7 8.3,364.3 10.0,357.5" stroke="#000000" fill="#ffffff" style="stroke-width: 2;"></path><text x="20" y="381.5" style="font-size: 16px; font-family: danielbd;"><tspan x="20">User</tspan></text></g><path d="M41.8,62.5C53.6,286.7 30.0,310.3 41.8,357.5" stroke="#000000" fill="none" style="stroke-width: 2;"></path><g class="actor"><path d="M337.203125,20C384.4,16.5 404.3,23.5 425.5,20.0C427.2,26.8 423.8,47.3 425.5,62.5C389.9,59.0 387.8,66.0 337.2,62.5C338.9,50.7 335.5,48.3 337.2,20.0" stroke="#000000" fill="#ffffff" style="stroke-width: 2;"></path><text x="347.203125" y="44" style="font-size: 16px; font-family: danielbd;"><tspan x="347.203125">Web API</tspan></text></g><g class="actor"><path d="M337.203125,357.5C391.6,354.0 404.3,361.0 425.5,357.5C423.8,391.6 427.2,389.8 425.5,400.0C411.4,396.5 364.7,403.5 337.2,400.0C335.5,367.8 338.9,377.6 337.2,357.5" stroke="#000000" fill="#ffffff" style="stroke-width: 2;"></path><text x="347.203125" y="381.5" style="font-size: 16px; font-family: danielbd;"><tspan x="347.203125">Web API</tspan></text></g><path d="M381.4,62.5C369.6,133.4 393.2,125.6 381.4,357.5" stroke="#000000" fill="none" style="stroke-width: 2;"></path><g class="actor"><path d="M526.5390625,20C574.3,22.5 573.2,17.5 589.6,20.0C591.3,53.8 587.9,52.3 589.6,62.5C546.5,65.0 548.4,60.0 526.5,62.5C524.8,33.8 528.2,30.2 526.5,20.0" stroke="#000000" fill="#ffffff" style="stroke-width: 2;"></path><text x="536.5390625" y="44" style="font-size: 16px; font-family: danielbd;"><tspan x="536.5390625">Data</tspan></text></g><g class="actor"><path d="M526.5390625,357.5C536.6,360.0 550.7,355.0 589.6,357.5C591.3,378.9 587.9,393.2 589.6,400.0C541.7,397.5 574.5,402.5 526.5,400.0C528.2,376.4 524.8,389.8 526.5,357.5" stroke="#000000" fill="#ffffff" style="stroke-width: 2;"></path><text x="536.5390625" y="381.5" style="font-size: 16px; font-family: danielbd;"><tspan x="536.5390625">Data</tspan></text></g><path d="M558.1,62.5C569.9,158.4 546.3,174.8 558.1,357.5" stroke="#000000" fill="none" style="stroke-width: 2;"></path><g class="signal"><text x="148.5625" y="90.25" style="font-size: 16px; font-family: danielbd;"><tspan x="148.5625">HTTP Request</tspan></text><path d="M41.8,105.0C285.9,91.4 265.7,118.6 381.4,105.0" stroke="#000000" fill="none" style="stroke-width: 2; marker-end: url(&quot;#markerArrowBlock&quot;);"></path></g><g class="note"><path d="M61.8359375,125C78.0,121.7 81.6,128.3 144.1,125.0C142.8,140.6 145.4,152.3 144.1,157.5C106.3,160.8 99.6,154.2 61.8,157.5C60.5,149.1 63.1,130.7 61.8,125.0" stroke="#000000" fill="#ffffff" style="stroke-width: 2;"></path><text x="66.8359375" y="144" style="font-size: 16px; font-family: danielbd;"><tspan x="66.8359375">sendGet</tspan></text></g><g class="signal"><text x="415.5546875" y="185.25" style="font-size: 16px; font-family: danielbd;"><tspan x="411.4921875">get products</tspan></text><path d="M381.4,200.0C410.9,207.1 423.8,192.9 558.1,200.0" stroke="#000000" fill="none" style="stroke-width: 2; marker-end: url(&quot;#markerArrowBlock&quot;);"></path></g><g class="signal"><text x="391.3671875" y="227.75" style="font-size: 16px; font-family: danielbd;"><tspan x="391.3671875">show all products</tspan></text><path d="M558.1,242.5C448.5,249.6 518.6,235.4 381.4,242.5" stroke="#000000" fill="none" style="stroke-width: 2; stroke-dasharray: 6, 2; marker-end: url(&quot;#markerArrowBlock&quot;);"></path></g><g class="signal"><text x="145.4296875" y="270.25" style="font-size: 16px; font-family: danielbd;"><tspan x="145.4296875">HTTP Response</tspan></text><path d="M381.4,285.0C123.3,271.4 299.9,298.6 41.8,285.0" stroke="#000000" fill="none" style="stroke-width: 2; stroke-dasharray: 6, 2; marker-end: url(&quot;#markerArrowBlock&quot;);"></path></g><g class="note"><path d="M61.8359375,305C255.7,317.0 228.9,293.0 361.4,305.0C362.7,332.3 360.1,329.7 361.4,337.5C204.5,325.5 261.0,349.5 61.8,337.5C63.1,332.3 60.5,321.6 61.8,305.0" stroke="#000000" fill="#ffffff" style="stroke-width: 2;"></path><text x="66.8359375" y="324" style="font-size: 16px; font-family: danielbd;"><tspan x="66.8359375">{product:"item",price:"price",id:"id"}</tspan></text></g></svg>