<?xml version="1.0" encoding="utf-8" standalone="no"?><!DOCTYPE svg PUBLIC "-//W3C//DTD SVG 20010904//EN" "http://www.w3.org/TR/2001/REC-SVG-20010904/DTD/svg10.dtd"><svg xmlns="http://www.w3.org/2000/svg" width="578" height="439" xmlns:xlink="http://www.w3.org/1999/xlink"><source><![CDATA[User->Web API: HTTP Request
Note right of User: sendPost: \n{product:pencil, price: 5}
Web API->Data: Add Product
Data-->Web API: added product to list
Web API-->User: HTTP Response
Note right of User: {_id: "id", pencil, 5}]]></source><desc></desc><defs><marker viewBox="0 0 5 5" markerWidth="5" markerHeight="5" orient="auto" refX="5" refY="2.5" id="markerArrowBlock"><path d="M 0 0 L 5 2.5 L 0 5 z"></path></marker><marker viewBox="0 0 9.6 16" markerWidth="4" markerHeight="16" orient="auto" refX="9.6" refY="8" id="markerArrowOpen"><path d="M 9.6,8 1.92,16 0,13.7 5.76,8 0,2.286 1.92,0 9.6,8 z"></path></marker></defs><g class="title"></g><g class="actor"><path d="M10,20C42.7,22.5 57.9,17.5 73.7,20.0C75.4,31.1 72.0,35.4 73.7,62.5C40.6,60.0 46.6,65.0 10.0,62.5C11.7,47.4 8.3,30.2 10.0,20.0" stroke="#000000" fill="#ffffff" style="stroke-width: 2;"></path><text x="20" y="44" style="font-size: 16px; font-family: danielbd;"><tspan x="20">User</tspan></text></g><g class="actor"><path d="M10,376.6875C45.5,374.1 58.4,379.2 73.7,376.7C72.0,383.5 75.4,412.4 73.7,419.2C25.3,421.7 20.2,416.6 10.0,419.2C8.3,412.4 11.7,406.2 10.0,376.7" stroke="#000000" fill="#ffffff" style="stroke-width: 2;"></path><text x="20" y="400.6875" style="font-size: 16px; font-family: danielbd;"><tspan x="20">User</tspan></text></g><path d="M41.8,62.5C29.3,137.9 54.4,112.8 41.8,376.7" stroke="#000000" fill="none" style="stroke-width: 2;"></path><g class="actor"><path d="M261.453125,20C275.6,16.5 325.7,23.5 349.8,20.0C348.1,54.7 351.5,52.3 349.8,62.5C335.6,66.0 328.6,59.0 261.5,62.5C263.2,27.9 259.8,50.5 261.5,20.0" stroke="#000000" fill="#ffffff" style="stroke-width: 2;"></path><text x="271.453125" y="44" style="font-size: 16px; font-family: danielbd;"><tspan x="271.453125">Web API</tspan></text></g><g class="actor"><path d="M261.453125,376.6875C282.7,373.2 323.2,380.2 349.8,376.7C351.5,410.5 348.1,386.5 349.8,419.2C282.3,422.7 294.5,415.7 261.5,419.2C263.2,409.0 259.8,408.6 261.5,376.7" stroke="#000000" fill="#ffffff" style="stroke-width: 2;"></path><text x="271.453125" y="400.6875" style="font-size: 16px; font-family: danielbd;"><tspan x="271.453125">Web API</tspan></text></g><path d="M305.6,62.5C293.0,137.9 318.2,256.7 305.6,376.7" stroke="#000000" fill="none" style="stroke-width: 2;"></path><g class="actor"><path d="M485.7578125,20C538.8,17.5 528.0,22.5 548.9,20.0C550.6,37.9 547.2,48.7 548.9,62.5C514.8,65.0 533.7,60.0 485.8,62.5C487.5,55.7 484.1,30.5 485.8,20.0" stroke="#000000" fill="#ffffff" style="stroke-width: 2;"></path><text x="495.7578125" y="44" style="font-size: 16px; font-family: danielbd;"><tspan x="495.7578125">Data</tspan></text></g><g class="actor"><path d="M485.7578125,376.6875C495.9,379.2 500.9,374.2 548.9,376.7C547.2,383.5 550.6,386.9 548.9,419.2C510.3,421.7 533.7,416.7 485.8,419.2C484.1,411.9 487.5,387.8 485.8,376.7" stroke="#000000" fill="#ffffff" style="stroke-width: 2;"></path><text x="495.7578125" y="400.6875" style="font-size: 16px; font-family: danielbd;"><tspan x="495.7578125">Data</tspan></text></g><path d="M517.3,62.5C529.9,112.8 504.7,152.9 517.3,376.7" stroke="#000000" fill="none" style="stroke-width: 2;"></path><g class="signal"><text x="110.6875" y="90.25" style="font-size: 16px; font-family: danielbd;"><tspan x="110.6875">HTTP Request</tspan></text><path d="M41.8,105.0C107.3,94.4 222.2,115.6 305.6,105.0" stroke="#000000" fill="none" style="stroke-width: 2; marker-end: url(&quot;#markerArrowBlock&quot;);"></path></g><g class="note"><path d="M61.8359375,125C249.8,116.0 231.9,134.0 285.6,125.0C283.5,164.3 287.7,157.2 285.6,176.7C249.8,167.7 173.0,185.6 61.8,176.7C63.9,156.7 59.8,139.1 61.8,125.0" stroke="#000000" fill="#ffffff" style="stroke-width: 2;"></path><text x="66.8359375" y="144" style="font-size: 16px; font-family: danielbd;"><tspan x="66.8359375">sendPost:</tspan><tspan dy="1.2em" x="66.8359375">{product:pencil, price: 5}</tspan></text></g><g class="signal"><text x="353.109375" y="204.4375" style="font-size: 16px; font-family: danielbd;"><tspan x="353.109375">Add Product</tspan></text><path d="M305.6,219.2C454.2,210.7 483.4,227.7 517.3,219.2" stroke="#000000" fill="none" style="stroke-width: 2; marker-end: url(&quot;#markerArrowBlock&quot;);"></path></g><g class="signal"><text x="315.6171875" y="246.9375" style="font-size: 16px; font-family: danielbd;"><tspan x="315.6171875">added product to list</tspan></text><path d="M517.3,261.7C388.5,270.2 445.5,253.2 305.6,261.7" stroke="#000000" fill="none" style="stroke-width: 2; stroke-dasharray: 6, 2; marker-end: url(&quot;#markerArrowBlock&quot;);"></path></g><g class="signal"><text x="107.5546875" y="289.4375" style="font-size: 16px; font-family: danielbd;"><tspan x="107.5546875">HTTP Response</tspan></text><path d="M305.6,304.2C136.9,293.6 242.3,314.7 41.8,304.2" stroke="#000000" fill="none" style="stroke-width: 2; stroke-dasharray: 6, 2; marker-end: url(&quot;#markerArrowBlock&quot;);"></path></g><g class="note"><path d="M61.8359375,324.1875C186.3,316.9 117.5,331.5 243.9,324.2C245.2,348.2 242.6,348.9 243.9,356.7C207.0,364.0 148.1,349.4 61.8,356.7C60.5,329.4 63.1,336.4 61.8,324.2" stroke="#000000" fill="#ffffff" style="stroke-width: 2;"></path><text x="66.8359375" y="343.1875" style="font-size: 16px; font-family: danielbd;"><tspan x="66.8359375">{_id: "id", pencil, 5}</tspan></text></g></svg>